<svg width="712" height="181" viewBox="0 0 712 181" fill="none" xmlns="http://www.w3.org/2000/svg">
<path d="M10.5619 143.567C11.769 144.522 13.1521 145 14.7112 145C16.9745 145 18.8103 144.095 20.2185 142.284L51.1498 102.149L82.0812 142.284C83.4894 144.095 85.3252 145 87.5885 145C89.1476 145 90.5307 144.522 91.7378 143.567C93.2466 142.41 94.1268 140.876 94.3783 138.965C94.6297 137.104 94.1771 135.419 93.0203 133.91L59.8257 90.9079L93.0203 47.8304C94.1771 46.3215 94.6297 44.6367 94.3783 42.7757C94.1268 40.8645 93.2466 39.3305 91.7378 38.1738C90.2289 37.017 88.5441 36.5643 86.6832 36.8158C84.7719 37.0673 83.238 37.9474 82.0812 39.4563L51.1498 79.5916L20.2185 39.4563C19.0617 37.9474 17.5278 37.0673 15.6165 36.8158C13.7556 36.5643 12.0708 37.017 10.5619 38.1738C9.05307 39.3305 8.17291 40.8645 7.92144 42.7757C7.66996 44.6367 8.12262 46.3215 9.2794 47.8304L42.474 90.9079L9.2794 133.91C8.12262 135.419 7.66996 137.104 7.92144 138.965C8.17291 140.876 9.05307 142.41 10.5619 143.567Z" fill="#F98F1D"/>
<path d="M194.486 90.9105C194.486 75.9233 189.205 63.1491 178.644 52.5876C168.082 42.0262 155.308 36.7455 140.321 36.7455H116.708C114.797 36.7455 113.188 37.4245 111.88 38.7824C110.523 40.1403 109.844 41.7496 109.844 43.6104C109.844 45.5216 110.523 47.1561 111.88 48.514C113.188 49.8719 114.797 50.5508 116.708 50.5508H140.321C151.486 50.5508 160.991 54.4988 168.837 62.3947C176.733 70.2403 180.68 79.7456 180.68 90.9105C180.68 102.025 176.733 111.53 168.837 119.426C160.991 127.272 151.486 131.195 140.321 131.195H116.708C114.797 131.195 113.188 131.874 111.88 133.232C110.523 134.589 109.844 136.224 109.844 138.135C109.844 140.046 110.523 141.656 111.88 142.963C113.188 144.321 114.797 145 116.708 145H140.321C155.308 145 168.082 139.719 178.644 129.158C189.205 118.596 194.486 105.847 194.486 90.9105ZM263.663 50.5508C274.828 50.5508 284.333 54.4988 292.179 62.3947C300.075 70.2403 304.023 79.7456 304.023 90.9105C304.023 102.025 300.075 111.53 292.179 119.426C284.333 127.272 274.828 131.195 263.663 131.195C252.548 131.195 243.043 127.272 235.147 119.426C227.302 111.53 223.379 102.025 223.379 90.9105C223.379 79.7456 227.302 70.2403 235.147 62.3947C243.043 54.4988 252.548 50.5508 263.663 50.5508ZM263.663 145C278.65 145 291.424 139.719 301.986 129.158C312.547 118.596 317.828 105.847 317.828 90.9105C317.828 75.9233 312.547 63.1491 301.986 52.5876C291.424 42.0262 278.65 36.7455 263.663 36.7455C248.726 36.7455 235.977 42.0262 225.416 52.5876C214.854 63.1491 209.573 75.9233 209.573 90.9105C209.573 105.847 214.854 118.596 225.416 129.158C235.977 139.719 248.726 145 263.663 145ZM339.856 145C341.767 145 343.402 144.321 344.76 142.963C346.117 141.656 346.796 140.046 346.796 138.135V63.828L407.223 142.284C408.631 144.095 410.467 145 412.73 145C413.484 145 414.213 144.874 414.917 144.623C418.036 143.567 419.595 141.404 419.595 138.135V43.6104C419.595 41.7496 418.916 40.1403 417.558 38.7824C416.2 37.4245 414.591 36.7455 412.73 36.7455C410.819 36.7455 409.184 37.4245 407.826 38.7824C406.468 40.1403 405.789 41.7496 405.789 43.6104V117.918L345.363 39.4613C343.351 36.8461 340.786 36.0666 337.668 37.1227C334.55 38.1789 332.991 40.3414 332.991 43.6104V138.135C332.991 140.046 333.67 141.656 335.028 142.963C336.336 144.321 337.945 145 339.856 145ZM530.565 141.907C531.923 139.795 532.099 137.607 531.093 135.344L489.753 40.8947C488.546 38.1286 486.433 36.7455 483.416 36.7455C480.449 36.7455 478.361 38.1286 477.154 40.8947L435.814 135.344C435.06 137.104 435.034 138.864 435.739 140.625C436.392 142.385 437.599 143.642 439.36 144.396C440.265 144.799 441.195 145 442.151 145C445.118 145 447.205 143.617 448.412 140.851L483.416 60.8105L514.27 131.195H473.609C471.698 131.195 470.063 131.874 468.705 133.232C467.398 134.589 466.744 136.224 466.744 138.135C466.744 139.996 467.398 141.605 468.705 142.963C470.063 144.321 471.698 145 473.609 145H524.756C527.271 145 529.207 143.969 530.565 141.907ZM553.951 50.5508V138.135C553.951 140.046 554.605 141.656 555.912 142.963C557.27 144.321 558.905 145 560.816 145C562.727 145 564.361 144.321 565.719 142.963C567.027 141.656 567.681 140.046 567.681 138.135V50.5508H597.253C599.114 50.5508 600.723 49.8719 602.081 48.514C603.439 47.1561 604.118 45.5216 604.118 43.6104C604.118 41.7496 603.439 40.1403 602.081 38.7824C600.723 37.4245 599.114 36.7455 597.253 36.7455H524.379C522.468 36.7455 520.858 37.4245 519.551 38.7824C518.193 40.1403 517.514 41.7496 517.514 43.6104C517.514 45.5216 518.193 47.1561 519.551 48.514C520.858 49.8719 522.468 50.5508 524.379 50.5508H553.951ZM697.963 138.135C697.963 136.224 697.284 134.589 695.926 133.232C694.569 131.874 692.934 131.195 691.023 131.195H626.07C624.159 131.195 622.55 131.874 621.242 133.232C619.884 134.589 619.205 136.224 619.205 138.135C619.205 140.046 619.884 141.656 621.242 142.963C622.55 144.321 624.159 145 626.07 145H691.023C692.934 145 694.569 144.321 695.926 142.963C697.284 141.656 697.963 140.046 697.963 138.135ZM626.07 36.7455C624.159 36.7455 622.55 37.4245 621.242 38.7824C619.884 40.1403 619.205 41.7496 619.205 43.6104C619.205 45.5216 619.884 47.1561 621.242 48.514C622.55 49.8719 624.159 50.5508 626.07 50.5508H691.023C692.934 50.5508 694.569 49.8719 695.926 48.514C697.284 47.1561 697.963 45.5216 697.963 43.6104C697.963 41.7496 697.284 40.1403 695.926 38.7824C694.569 37.4245 692.934 36.7455 691.023 36.7455H626.07ZM626.07 83.9701C624.159 83.9701 622.55 84.6491 621.242 86.007C619.884 87.3649 619.205 88.9994 619.205 90.9105C619.205 92.7713 619.884 94.3807 621.242 95.7386C622.55 97.0965 624.159 97.7754 626.07 97.7754H691.023C692.934 97.7754 694.569 97.0965 695.926 95.7386C697.284 94.3807 697.963 92.7713 697.963 90.9105C697.963 88.9994 697.284 87.3649 695.926 86.007C694.569 84.6491 692.934 83.9701 691.023 83.9701H626.07Z" fill="#34393F"/>
</svg>
